<svg id="visual" viewBox="0 0 2560 1440" width="2560" height="1440" xmlns="http://www.w3.org/2000/svg" xmlns:xlink="http://www.w3.org/1999/xlink" version="1.1"><rect x="0" y="0" width="2560" height="1440" fill="#0E2A47"></rect><path d="M0 1200L61 1178.8C122 1157.7 244 1115.3 365.8 1083.7C487.7 1052 609.3 1031 731.2 1007.8C853 984.7 975 959.3 1097 932.5C1219 905.7 1341 877.3 1463 894.8C1585 912.3 1707 975.7 1828.8 1016.3C1950.7 1057 2072.3 1075 2194.2 1045.5C2316 1016 2438 939 2499 900.5L2560 862L2560 1441L2499 1441C2438 1441 2316 1441 2194.2 1441C2072.3 1441 1950.7 1441 1828.8 1441C1707 1441 1585 1441 1463 1441C1341 1441 1219 1441 1097 1441C975 1441 853 1441 731.2 1441C609.3 1441 487.7 1441 365.8 1441C244 1441 122 1441 61 1441L0 1441Z" fill="#256bd3" stroke-linecap="round" stroke-linejoin="miter"></path></svg>